<svg enable-background="new 0 0 128 128" height="100" viewBox="0 0 128 128" width="100" xmlns="http://www.w3.org/2000/svg"><path d="m37 76.9h-3c-3.3 0-6-2.7-6-6v-14c0-3.3 2.7-6 6-6l.1-2.8c1.7 0 3 1.3 3 3z" fill="#a4f4c4"/><path d="m91 76.9h3c3.3 0 6-2.7 6-6v-14c0-3.3-2.7-6-6-6h-3z" fill="#06a18c"/><path d="m74.2 26.6-3.3-1.1c-2.2-.5-4.5-.8-6.8-.8s-4.6.3-6.8.8l-3.3 1c-8.2 3.1-13.8 9.9-13.8 17.8 0 .1 47.9 0 47.9 0-.1-7.8-5.8-14.6-13.9-17.7z" fill="#8fe5b5"/><path d="m57.3 28.5c-.8 0-1.5-.3-2.1-.9l-6-6c-1.2-1.2-1.2-3.1 0-4.2 1.2-1.2 3.1-1.2 4.2 0l6 6c1.2 1.2 1.2 3.1 0 4.2-.6.6-1.4.9-2.1.9z" fill="#444b54"/><path d="m72.9 23.5-2 2c-2.2-.5-4.5-.8-6.8-.8-1.7 0-3.4.2-5 .4 14.4.4 18.9 11.4 18.9 19.2h9.9.1c0-.5 0-1-.1-1.5 0-.5-.1-1-.2-1.4-.2-.9-.4-1.9-.8-2.8-.5-1.3-1.2-2.6-2-3.8-1.6-2.4-3.9-4.5-6.5-6.2-1.3-.8-2.8-1.5-4.3-2.1z" fill="#06a18c" opacity=".5"/><path d="m56.6 24.8-4.5-.1c.7 0 3.7 0 4.5.1z" fill="#8fe5b5"/><ellipse cx="57" cy="35.9" fill="#fff" rx="2.8" ry="2.8"/><ellipse cx="71.1" cy="35.9" fill="#fff" rx="2.8" ry="2.8"/><path d="m40.1 80.9c0 4.6 3.8 8.4 8.4 8.4v14.8c0 2.7 2.5 4.9 5.6 4.9s5.6-2.2 5.6-4.9v-14.8h8.5v14.8c0 2.7 2.5 4.9 5.6 4.9s5.6-2.2 5.6-4.9v-14.8c4.7 0 8.5-3.8 8.5-8.4v-29.7c0-1.7-1.3-3-3-3h-41.8c-1.7 0-3 1.3-3 3zm8.4 8.4v14.8c0 2.7 2.5 4.9 5.6 4.9" fill="#8fe5b5"/><g fill="#06a18c" opacity=".5"><path d="m48.5 99.4v4.7c0 2.7 2.5 4.9 5.6 4.9s5.6-2.2 5.6-4.9v-14.6c-3.8 4-7.6 7.3-11.2 9.9z"/><path d="m84.5 48.2h-6.5c0 12.5-4.2 24.7-12.1 34.4-2 2.5-4 4.7-5.9 6.7h8.3v14.8c0 .8.2 1.6.6 2.3.2.4.5.7.8 1.1 0 0 0 0 .1.1.3.3.7.6 1.1.8 0 0 .1 0 .1.1.2.1.4.2.5.3h.1c.2.1.4.2.7.2h.1c.2 0 .4.1.6.1h.2.7c3.1 0 5.6-2.2 5.6-4.9v-14.9c4.7 0 8.5-3.8 8.5-8.4v-29.7c0-1.7-1.3-3-3-3z"/></g><g fill="#444b54"><path d="m73.9 112c-4.8 0-8.6-3.6-8.6-7.9v-11.8h-2.5v11.8c0 4.4-3.9 7.9-8.6 7.9-1.7 0-3-1.3-3-3s1.3-3 3-3c1.4 0 2.6-.9 2.6-1.9v-14.8c0-1.7 1.3-3 3-3h8.5c1.7 0 3 1.3 3 3v14.8c0 1 1.2 1.9 2.6 1.9s2.6-.9 2.6-1.9v-14.8c0-1.7 1.3-3 3-3 3 0 5.5-2.4 5.5-5.4v-4-16c0-1.7 1.3-3 3-3 1.7 0 3 1.3 3 3v13h3.3c1.4 0 2.6-.9 2.6-1.9v-15.1c0-.8-.3-1.6-.9-2.1-.6-.6-1.3-.9-2.1-.9-1.7 0-3-1.3-3-3s1.3-3 3-3c2.4 0 4.7.9 6.4 2.6s2.6 4 2.6 6.4v15.1c0 4.4-3.9 7.9-8.6 7.9h-3.3v1c0 5.3-3.6 9.7-8.5 11v12.2c0 4.3-3.9 7.9-8.6 7.9zm-25.4-19.7c-6.3 0-11.4-5.1-11.4-11.4l-.1-19.9c0-1.7 1.3-3 3-3 1.7 0 3 1.3 3 3l.1 19.9c0 3 2.4 5.4 5.4 5.4 1.7 0 3 1.4 3 3 0 1.7-1.3 3-3 3zm39.2-47.8c-1.4 0-2.7-1-2.9-2.5-1-5.4-5.3-10.2-11.6-12.6l-3.1-1c-3.9-.9-8-.9-12 0l-3.2 1c-6.3 2.4-10.6 7.1-11.6 12.6-.3 1.6-1.9 2.7-3.5 2.4s-2.7-1.9-2.4-3.5c1.4-7.5 7.2-13.9 15.4-17.1.1 0 .1 0 .2-.1l3.3-1c.1 0 .1 0 .2-.1 4.9-1.2 10.1-1.2 15 0 .1 0 .1 0 .2.1l3.3 1.1c.1 0 .1 0 .2.1 8.3 3.2 14 9.6 15.4 17.2.3 1.6-.8 3.2-2.4 3.5-.1-.2-.3-.1-.5-.1z"/><path d="m70.9 28.5c-.8 0-1.5-.3-2.1-.9-1.2-1.2-1.2-3.1 0-4.2l6.1-6c1.2-1.2 3.1-1.2 4.2 0s1.2 3.1 0 4.2l-6.1 6c-.6.6-1.4.9-2.1.9z"/><path d="m95 112h-40.9c-1.7 0-3-1.3-3-3s1.3-3 3-3h40.9c1.7 0 3 1.3 3 3s-1.3 3-3 3z"/><path d="m110 112c-.2 0-.4 0-.6-.1-.2 0-.4-.1-.6-.2s-.3-.2-.5-.3-.3-.2-.5-.4c-.6-.6-.9-1.3-.9-2.1 0-.2 0-.4.1-.6 0-.2.1-.4.2-.6s.2-.3.3-.5.2-.3.4-.5.3-.3.5-.4.3-.2.5-.3.4-.1.6-.2c.4-.1.8-.1 1.2 0 .2 0 .4.1.6.2s.4.2.5.3c.2.1.3.2.5.4.1.1.3.3.4.5s.2.3.3.5.1.4.2.6c0 .2.1.4.1.6 0 .8-.3 1.6-.9 2.1-.1.1-.3.3-.5.4s-.3.2-.5.3-.4.1-.6.2c-.4.1-.6.1-.8.1z"/><path d="m40 80h-6c-5 0-9-4-9-9v-14c0-5 4-9 9-9 1.7 0 3 1.3 3 3s-1.3 3-3 3-3 1.3-3 3v14c0 1.7 1.3 3 3 3h6c1.7 0 3 1.3 3 3s-1.3 3-3 3z"/><path d="m54.1 112c-4.8 0-8.6-3.6-8.6-7.9v-14.8c0-1.7 1.3-3 3-3s3 1.3 3 3v14.8c0 1 1.2 1.9 2.6 1.9 1.7 0 3 1.3 3 3s-1.3 3-3 3z"/></g></svg>