<svg height="100" viewBox="0 0 64 64" width="100" xmlns="http://www.w3.org/2000/svg"><path d="m59 31c0 15.464844-12.535156 28-28 28s-28-12.535156-28-28 12.535156-28 28-28 28 12.535156 28 28z" fill="#8b8e98"/><path d="m31 54c-12.703125 0-23-10.296875-23-23s10.296875-23 23-23 23 10.296875 23 23-10.296875 23-23 23z" fill="#7e8189"/><path d="m36.078125 43.351563c1.699219 1.820312 2.730469 4.164062 2.921875 6.648437v5.25c0 .550781.230469 2.128906.898438 2.308594l-8.898438 1.621094-9-1.609375c.71875-.160157 1-1.769532 1-2.320313s0-.910156 0-3.25c-7.789062 1.691406-9.398437-4.300781-9.398437-4.300781-1.28125-3.230469-3.113282-4.097656-3.113282-4.097656-2.539062-1.730469.191407-1.703125.191407-1.703125 1.808593.242187 3.40625 1.3125 4.320312 2.890625 2.5 4.269531 6.441406 3.921875 8 3.210937.261719-1.808594 2.101563-3.929687 2.898438-4.628906-6.21875-.710938-12.757813-3.109375-12.757813-13.839844-.050781-2.785156.972656-5.480469 2.859375-7.53125-.851562-2.414062-.75-5.066406.28125-7.410156 3.140625-25.667969 2.347656-.75 7.699219 2.871094 4.582031-1.25 9.417969-1.25 14 0 5.339844-3.621094 7.691406-2.871094 7.691406-2.871094 1.046875 2.339844 1.164063 4.988281.328125 7.410156 1.886719 2.042969 2.914063 4.730469 2.871094 7.511719-.011719 10.777344-6.550781 13.148437-12.792969 13.839844z" fill="#faefde"/><g fill="#8d6c9f"><path d="m31 2c-14.144531.007813-26.21875 10.21875-28.578125 24.160156-2.359375 13.945313 5.683594 27.558594 19.039063 32.21875.160156.117188.351562.183594.550781.191407 10.890625 3.554687 22.855469.359375 30.527344-8.148438 7.675781-8.511719 9.617187-20.742187 4.960937-31.210937s-15.042969-17.210938-26.5-17.210938zm-7.300781 55c.183594-.5625.285156-1.148437.300781-1.738281v-.542969c0-.449219 0-1.058594 0-2.71875.007813-.304687-.125-.597656-.363281-.792969-.234375-.195312-.546875-.269531-.847656-.207031-6.71875 1.460938-8.167969-3.378906-8.230469-3.578125v-.113281c-.582031-1.664063-1.621094-3.132813-3-4.238281 1.070312.4375 1.964844 1.210937 2.5625 2.199218 2.640625 4.53125 7 4.652344 9.300781 3.621094.3125-.140625.53125-.429687.578125-.769531.460938-1.546875 1.347656-2.933594 2.558594-4 .296875-.265625.40625-.675781.285156-1.054688-.121094-.375-.449219-.644531-.84375-.6875-5.871094-.667968-11.871094-2.71875-11.871094-12.839843-.039062-2.53125.898438-4.980469 2.621094-6.839844.285156-.273438.382813-.6875.25-1.058594-.722656-1.964844-.722656-4.125 0-6.089844.851563 0 2.921875.390625 6.421875 2.757813.242188.167969.542969.21875.828125.140625 4.414063-1.207031 9.066406-1.207031 13.480469 0 .285156.078125.585937.027344.828125-.140625 3.511719-2.378906 5.589844-2.738281 6.410156-2.769531.746094 1.960937.769531 4.125.070313 6.101562-.144532.355469-.070313.765625.191406 1.050781 1.71875 1.855469 2.652344 4.308594 2.609375 6.839844 0 10.128906-6 12.167969-11.890625 12.820313-.394531.042968-.722656.316406-.839844.695312-.117187.382813 0 .792969.300781 1.054688 1.476563 1.632812 2.386719 3.703125 2.589844 5.898437v5.25c.011719.59375.109375 1.183594.289063 1.75-4.769532 1.347656-9.820313 1.347656-14.589844 0zm16.5-.601562c-.117188-.363282-.183594-.746094-.199219-1.128907v-5.269531c-.117187-2.113281-.808594-4.160156-2-5.910156 5.550781-.941406 11.890625-3.820313 11.890625-14.558594.042969-2.824219-.929687-5.566406-2.742187-7.730469.703125-2.503906.535156-5.167968-.476563-7.5625-.113281-.273437-.339844-.488281-.621094-.578125-.28125-.089843-2.851562-.761718-8.179687 2.738282-4.484375-1.144532-9.179688-1.144532-13.660156 0-5.332032-3.5-7.902344-2.828125-8.179688-2.738282-.285156.089844-.511719.304688-.621094.578125-1.015625 2.394532-1.183593 5.058594-.480468 7.5625-1.8125 2.164063-2.785157 4.90625-2.738282 7.730469 0 10.648438 6.230469 13.578125 11.730469 14.558594-.777344.933594-1.367187 2.003906-1.742187 3.160156-1.417969.398438-4.339844.410156-6.289063-2.941406-1.085937-1.878906-2.996094-3.140625-5.152344-3.398438-.539062 0-1.898437.089844-2.21875 1.128907-.320312 1.039062.910157 2 1.460938 2.402343l.128906.070313c.0625 0 1.519531.796875 2.601563 3.527344.230468.710937 2.21875 6.101562 9.347656 5.152343v1.5.558594c-.015625.386719-.085938.765625-.207031 1.128906-12.324219-4.46875-19.65625-17.144531-17.390625-30.054687 2.269531-12.910156 13.484375-22.328125 26.59375-22.328125s24.324218 9.417969 26.59375 22.328125c2.269531 12.910156-5.066407 25.585937-17.386719 30.054687z"/><path d="m31 37c-.550781 0-1 .449219-1 1v2c0 .550781.449219 1 1 1s1-.449219 1-1v-2c0-.550781-.449219-1-1-1z"/><path d="m35.601563 39.53125c.144531.53125.695312.84375 1.226562.699219.535156-.148438.847656-.699219.703125-1.230469l-.53125-1.921875c-.15625-.511719-.695312-.8125-1.214844-.671875-.523437.140625-.835937.667969-.714843 1.195313z"/><path d="m21.75 34.519531c-.230469-.132812-.503906-.167968-.761719-.101562-.257812.070312-.476562.242187-.609375.472656l-1 1.730469c-.246093.472656-.078125 1.058594.386719 1.328125s1.058594.121094 1.34375-.328125l1-1.730469c.136719-.230469.171875-.503906.105469-.761719-.066406-.253906-.234375-.476562-.464844-.609375z"/><path d="m40.878906 37.621094c.171875.324219.507813.53125.875.535156.367188.003906.707032-.191406.886719-.511719.175781-.320312.167969-.714843-.03125-1.023437l-1-1.730469c-.285156-.453125-.878906-.597656-1.34375-.328125-.464844.265625-.632812.851563-.386719 1.328125z"/><path d="m26.210938 36.371094c-.535157-.140625-1.078125.175781-1.222657.707031l-.519531 1.921875c-.105469.347656-.015625.730469.242188.992188.253906.261718.632812.363281.984375.265625.351562-.097657.621093-.382813.703125-.738282l.523437-1.929687c.136719-.53125-.179687-1.078125-.710937-1.21875z"/><path d="m41.351563 9.460938c-.75-.375-1.515625-.710938-2.300782-1-.507812-.15625-1.046875.105468-1.234375.605468-.183593.496094.046875 1.050782.535157 1.261719.714843.269531 1.414062.578125 2.097656.921875.140625.070313.292969.109375.449219.109375.460937-.003906.863281-.320312.96875-.769531.105468-.445313-.105469-.910156-.515625-1.121094z"/><path d="m34.648438 7.289063c-5.164063-.816407-10.449219.140625-15 2.722656-.394532.222656-.589844.6875-.472657 1.125.117188.441406.519532.746094.972657.742187.171875 0 .34375-.042968.492187-.128906 4.152344-2.351562 8.984375-3.226562 13.699219-2.480469.550781.089844 1.070312-.289062 1.160156-.839843.089844-.550782-.289062-1.070313-.839844-1.160157z"/></g></svg>