<svg height="64" viewBox="0 0 50 50" width="64" xmlns="http://www.w3.org/2000/svg"><path d="m25 2c-4.541 0-8.41336 1.9082151-11.017578 4.9453125-2.604219 3.0370974-3.982422 7.1344375-3.982422 11.5546875s1.378203 8.517589 3.982422 11.554688c2.604218 3.037097 6.476578 4.945312 11.017578 4.945312 4.531588 0 8.395936-1.901605 11-4.927734v4.927734c0 2.598543-.818503 4.764071-2.451172 6.339844-1.632668 1.575772-4.185103 2.660156-8.048828 2.660156-7.715686 0-10.5-4.066667-10.5-8h-4c0 6.066667 5.215686 12 14.5 12 4.636275 0 8.33384-1.377726 10.826172-3.783203 2.492331-2.405478 3.673828-5.74034 3.673828-9.216797v-16.5-15.5h-4v3.9277344c-2.604064-3.0261295-6.468412-4.9277344-11-4.9277344zm0 4c3.459 0 6.08664 1.3379255 7.982422 3.5488281 1.895781 2.2109029 3.017578 5.3634219 3.017578 8.9511719s-1.121797 6.740269-3.017578 8.951172c-1.895782 2.210902-4.523422 3.548828-7.982422 3.548828s-6.08664-1.337926-7.982422-3.548828c-1.895781-2.210903-3.017578-5.363422-3.017578-8.951172s1.121797-6.740269 3.017578-8.9511719c1.895782-2.2109026 4.523422-3.5488281 7.982422-3.5488281z"/></svg>