<svg height="100" viewBox="0 0 64 64" width="100" xmlns="http://www.w3.org/2000/svg"><path d="m42.820313 45.109375c-4.605469 3.578125-10.628907 4.769531-16.246094 3.222656-5.621094-1.550781-10.183594-5.660156-12.304688-11.09375-2.945312 1.863282-5.714843 3.992188-8.269531 6.363282 4.019531 7.984375 11.609375 13.570312 20.429688 15.035156 8.820312 1.460937 17.808593-1.375 24.191406-7.636719z" fill="#72caaf"/><path d="m14.269531 37.238281c-2.085937-5.328125-1.59375-11.320312 1.332032-16.238281-2.785157-1.636719-5.40625-3.542969-7.820313-5.691406-5.675781 8.414062-6.359375 19.234375-1.78125 28.292969 4-2.601563 4-3.601563 8.269531-6.363282z" fill="#f9e3ae"/><path d="m15.230469 21.679688c2.539062-4.699219 6.988281-8.066407 12.203125-9.234375 5.210937-1.171875 10.671875-.027344 14.976562 3.132812l6.289063-6.277344c-6.089844-4.976562-13.996094-7.160156-21.777344-6.019531s-14.726562 5.503906-19.132812 12.019531c2.210937 1.699219 4.210937 2.699219 7.441406 6.378907z" fill="#ed7899"/><path d="m58 36-2 7-5 9-7-6 3-5 .441406-5h-15.441406v-9h26z" fill="#85cbf8"/><g fill="#8d6c9f"><path d="m57 26.199219h-23.648437c-1.105469 0-2 .894531-2 2v7.222656c0 1.101563.894531 2 2 2h13.597656c-1.800781 7.238281-7.320313 11.277344-15.738281 11.277344-9.871094.085937-17.949219-7.828125-18.070313-17.699219.078125-9.902344 8.167969-17.863281 18.070313-17.78125 3.726562-.003906 7.363281 1.128906 10.429687 3.25.339844.242188.75.375 1.167969.371094.566406-.003906 1.105469-.246094 1.480469-.667969l4.859375-5.480469c.375-.421875.558593-.976562.5-1.539062-.058594-.558594-.347657-1.066406-.796875-1.402344-5.121094-3.742187-11.300782-5.757812-17.640625-5.75-16.261719 0-29.492188 13-29.492188 29s13.230469 29 29.492188 29c16.617187-.078125 27.789062-11.378906 27.789062-28.191406v-3.609375c0-1.105469-.894531-2-2-2zm-25.789062-22.199219c5.90625.003906 11.664062 1.878906 16.4375 5.359375l-4.867188 5.46875c-9.011719-6.253906-21.371094-4.191406-27.859375 4.652344l-5.921875-4.410156c5.238281-6.996094 13.472656-11.097657 22.210938-11.070313zm-23.320313 12.710938 5.929688 4.4375c-2.917969 4.941406-3.476563 10.925781-1.519532 16.320312l-6.128906 4.601563c-3.800781-8.191407-3.152344-17.757813 1.71875-25.359375zm-.800781 27.167968 6-4.5c3.367187 6.9375 10.410156 11.335938 18.121094 11.320313 4.304687.152344 8.535156-1.160156 12-3.71875l5.570312 4.78125c-4.441406 3.929687-10.472656 6.160156-17.582031 6.160156-9.984375.027344-19.207031-5.34375-24.109375-14.042969zm49.910156-12.070312c0 7.613281-2.46875 14-6.769531 18.550781l-5.511719-4.71875c2.058594-2.160156 3.5-4.832031 4.171875-7.742187.148438-.59375.011719-1.226563-.367187-1.710938-.378907-.484375-.957032-.765625-1.574219-.765625h-13.597656v-7.222656h23.648437z"/><path d="m16 31c0 .550781.449219 1 1 1h2c.550781 0 1-.449219 1-1s-.449219-1-1-1h-2c-.550781 0-1 .449219-1 1z"/><path d="m18 37.238281c.125.003907.253906-.023437.371094-.066406l1.847656-.75c.476563-.230469.695313-.789062.496094-1.28125-.199219-.488281-.742188-.738281-1.246094-.570312l-1.847656.75c-.4375.183593-.683594.648437-.589844 1.113281.089844.464844.496094.800781.96875.804687z"/><path d="m20.929688 41.730469c.257812 0 .503906-.101563.691406-.28125l1.4375-1.390625c.398437-.382813.410156-1.015625.027344-1.414063-.386719-.398437-1.019532-.410156-1.414063-.023437l-1.433594 1.378906c-.292968.28125-.382812.714844-.230468 1.09375.148437.375.515625.625.921875.625z"/><path d="m26.53125 41c-.242187-.109375-.519531-.113281-.765625-.019531-.25.097656-.449219.285156-.554687.53125l-.8125 1.828125c-.105469.242187-.113282.519531-.015625.765625.09375.246094.285156.445312.527343.554687.128907.058594.269532.089844.410157.089844.394531 0 .75-.230469.910156-.589844l.769531-1.789062c.125-.242188.148438-.527344.058594-.785156-.089844-.261719-.28125-.472657-.527344-.585938z"/><path d="m19.5 27.429688c.117188.046875.242188.070312.371094.070312.480469 0 .894531-.339844.984375-.8125s-.167969-.941406-.617188-1.117187l-1.847656-.75c-.5-.167969-1.046875.082031-1.246094.570312-.199218.492188.019532 1.050781.496094 1.28125z"/><path d="m23.058594 21.949219-1.4375-1.390625c-.40625-.332031-.996094-.296875-1.359375.082031-.363281.375-.371094.96875-.023438 1.359375l1.441407 1.390625c.398437.382813 1.03125.371094 1.414062-.027344.386719-.394531.375-1.03125-.023437-1.414062z"/><path d="m27 19.628906-.808594-1.828125c-.226562-.507812-.816406-.734375-1.320312-.511718-.507813.226562-.734375.816406-.511719 1.320312l.8125 1.832031c.160156.355469.515625.585938.90625.589844.144531 0 .28125-.03125.410156-.089844.5-.226562.730469-.808593.511719-1.3125z"/></g></svg>
