<svg height="100" viewBox="0 0 64 64" width="100" xmlns="http://www.w3.org/2000/svg"><path d="m51 57h-38c-3.3125 0-6-2.6875-6-6v-38c0-3.3125 2.6875-6 6-6h38c3.3125 0 6 2.6875 6 6v38c0 3.3125-2.6875 6-6 6z" fill="#ed7899"/><path d="m13 7h38c3.3125 0 6 2.6875 6 6v38c0 3.3125-2.6875 6-6 6h-38c-3.3125 0-6-2.6875-6-6v-38c0-3.3125 2.6875-6 6-6z" fill="#3a69ed"/><path d="m57 51v-31.660156c-3.664062-4.816406-8.109375-8.988281-13.148437-12.339844h-30.851563c-3.3125 0-6 2.6875-6 6v38c0 3.3125 2.6875 6 6 6h38c3.3125 0 6-2.6875 6-6z" fill="#8f34bf"/><path d="m57 51v-22.511719c-5.257812-9.585937-13.5625-17.148437-23.601562-21.488281h-20.398438c-3.3125 0-6 2.6875-6 6v38c0 3.3125 2.6875 6 6 6h38c3.3125 0 6-2.6875 6-6z" fill="#bb52ce"/><path d="m57 51v-8.328125c-4.390625-20.238281-22.292969-34.671875-43-34.671875-1.554687.003906-3.105469.085938-4.648437.25-1.480469 1.132813-2.347657 2.886719-2.351563 4.75v38c0 3.3125 2.6875 6 6 6h38c3.3125 0 6-2.6875 6-6z" fill="#e0678f"/><path d="m14 14c-2.347656 0-4.691406.21875-7 .648438v36.351562c0 3.3125 2.6875 6 6 6h38c.222656.011719.445313.011719.671875 0 .21875-1.65625.328125-3.328125.328125-5 0-20.988281-17.011719-38-38-38z" fill="#ff9800"/><path d="m14 20c-2.355469.003906-4.703125.265625-7 .78125v30.21875c0 3.3125 2.6875 6 6 6h32.609375c.261719-1.652344.390625-3.324219.390625-5 0-17.671875-14.328125-32-32-32z" fill="#f4b998"/><path d="m14 26c-2.367187.011719-4.722656.347656-7 1v24c0 3.3125 2.6875 6 6 6h26.511719c1.492187-7.625-.503906-15.519531-5.441406-21.519531s-12.300782-9.480469-20.070313-9.480469z" fill="#f6d397"/><path d="m14 32c-2.390625.003906-4.761719.4375-7 1.28125v17.71875c0 3.3125 2.6875 6 6 6h20.339844c1.574219-5.988281.277344-12.367187-3.511719-17.265625-3.789062-4.894531-9.636719-7.753906-15.828125-7.734375z" fill="#f9e3ae"/><path d="m14 38c-2.460937 0-4.875.652344-7 1.890625v11.109375c0 3.3125 2.6875 6 6 6h14.058594c1.644531-4.300781 1.070312-9.136719-1.539063-12.929687-2.605468-3.796875-6.914062-6.066407-11.519531-6.070313z" fill="#faefde"/><path d="m45 32c0 7.179688-5.820312 13-13 13-7.179687 0-13-5.820312-13-13 0-7.179687 5.820313-13 13-13 7.179688 0 13 5.820313 13 13z" fill="#f9e3ae"/><path d="m41 32c0 4.96875-4.03125 9-9 9s-9-4.03125-9-9 4.03125-9 9-9 9 4.03125 9 9z" fill="#bbdef9"/><path d="m37 32c0 2.761719-2.238281 5-5 5s-5-2.238281-5-5 2.238281-5 5-5 5 2.238281 5 5z" fill="#d2edff"/><path d="m33 30c0 1.65625-1.34375 3-3 3s-3-1.34375-3-3 1.34375-3 3-3 3 1.34375 3 3z" fill="#f3f3f3"/><path d="m37 35.5c0 .828125-.671875 1.5-1.5 1.5s-1.5-.671875-1.5-1.5.671875-1.5 1.5-1.5 1.5.671875 1.5 1.5z" fill="#f3f3f3"/><path d="m50 16c0 1.105469-.894531 2-2 2s-2-.894531-2-2 .894531-2 2-2 2 .894531 2 2z" fill="#85cbf8"/><path d="m32 46c7.730469 0 14-6.269531 14-14s-6.269531-14-14-14-14 6.269531-14 14 6.269531 14 14 14zm0-26c6.628906 0 12 5.371094 12 12s-5.371094 12-12 12-12-5.371094-12-12 5.371094-12 12-12z" fill="#8d6c9f"/><path d="m32 42c5.523438 0 10-4.476562 10-10 0-5.523437-4.476562-10-10-10-5.523437 0-10 4.476563-10 10 0 5.523438 4.476563 10 10 10zm0-18c4.417969 0 8 3.582031 8 8s-3.582031 8-8 8-8-3.582031-8-8 3.582031-8 8-8z" fill="#8d6c9f"/><path d="m48 13c-1.65625 0-3 1.34375-3 3s1.34375 3 3 3 3-1.34375 3-3-1.34375-3-3-3zm0 4.46875c-.8125 0-1.46875-.65625-1.46875-1.46875s.65625-1.46875 1.46875-1.46875 1.46875.65625 1.46875 1.46875-.65625 1.46875-1.46875 1.46875z" fill="#f9e3ae"/><g fill="#8d6c9f"><path d="m51 6h-38c-3.867187 0-7 3.132813-7 7v38c0 3.867188 3.132813 7 7 7h38c3.867188 0 7-3.132812 7-7v-38c0-3.867187-3.132812-7-7-7zm5 45c0 2.761719-2.238281 5-5 5h-38c-2.761719 0-5-2.238281-5-5v-38c0-2.761719 2.238281-5 5-5h38c2.761719 0 5 2.238281 5 5z"/><path d="m17 49c-.550781 0-1 .449219-1 1v2c0 .550781.449219 1 1 1s1-.449219 1-1v-2c0-.550781-.449219-1-1-1z"/><path d="m12 49c-.550781 0-1 .449219-1 1v2c0 .550781.449219 1 1 1s1-.449219 1-1v-2c0-.550781-.449219-1-1-1z"/><path d="m32 49c-.550781 0-1 .449219-1 1v2c0 .550781.449219 1 1 1s1-.449219 1-1v-2c0-.550781-.449219-1-1-1z"/><path d="m37 49c-.550781 0-1 .449219-1 1v2c0 .550781.449219 1 1 1s1-.449219 1-1v-2c0-.550781-.449219-1-1-1z"/><path d="m42 49c-.550781 0-1 .449219-1 1v2c0 .550781.449219 1 1 1s1-.449219 1-1v-2c0-.550781-.449219-1-1-1z"/><path d="m47 49c-.550781 0-1 .449219-1 1v2c0 .550781.449219 1 1 1s1-.449219 1-1v-2c0-.550781-.449219-1-1-1z"/><path d="m52 49c-.550781 0-1 .449219-1 1v2c0 .550781.449219 1 1 1s1-.449219 1-1v-2c0-.550781-.449219-1-1-1z"/><path d="m22 49c-.550781 0-1 .449219-1 1v2c0 .550781.449219 1 1 1s1-.449219 1-1v-2c0-.550781-.449219-1-1-1z"/><path d="m27 49c-.550781 0-1 .449219-1 1v2c0 .550781.449219 1 1 1s1-.449219 1-1v-2c0-.550781-.449219-1-1-1z"/></g></svg>