<svg height="100" viewBox="0 0 64 64" width="100" xmlns="http://www.w3.org/2000/svg"><path d="m21 1h22c3.3125 0 6 2.6875 6 6v50c0 3.3125-2.6875 6-6 6h-22c-3.3125 0-6-2.6875-6-6v-50c0-3.3125 2.6875-6 6-6z" fill="#acb7d0"/><path d="m15 53h34v4c0 3.3125-2.6875 6-6 6h-22c-3.3125 0-6-2.6875-6-6z" fill="#acb7d0"/><path d="m15 9h34v44h-34z" fill="#c5e4fa"/><path d="m31 53 18.378906-18.371094-.378906-14.628906-33 33z" fill="#e3f2ff"/><path d="m15 50 34-34v-6l-34 34z" fill="#e3f2ff"/><path d="m15 40 31-31h-5l-26 26z" fill="#e3f2ff"/><path d="m35.628906 27.871094c.203125-.140625.339844-.359375.371094-.605469s-.046875-.492187-.210937-.675781c-1.421875-1.621094-3.699219-2.191406-5.71875-1.433594-2.019532.761719-3.355469 2.691406-3.355469 4.847656s1.335937 4.089844 3.355469 4.847657c2.019531.761718 4.296875.191406 5.71875-1.429688.164062-.1875.242187-.433594.210937-.679687-.03125-.242188-.167969-.464844-.371094-.601563-.703125-.480469-1.125-1.277344-1.125-2.128906 0-.855469.421875-1.652344 1.125-2.132813z" fill="#fff8f8"/><g fill="#8d6c9f"><path d="m43 0h-22c-3.867187 0-7 3.132813-7 7v50c0 3.867188 3.132813 7 7 7h22c3.867188 0 7-3.132812 7-7v-50c0-3.867187-3.132812-7-7-7zm-27 10h32v42h-32zm5-8h22c2.761719 0 5 2.238281 5 5v1h-32v-1c0-2.761719 2.238281-5 5-5zm22 60h-22c-2.761719 0-5-2.238281-5-5v-3h32v3c0 2.761719-2.238281 5-5 5z"/><path d="m19 44c-.550781 0-1 .449219-1 1v2c0 .550781.449219 1 1 1s1-.449219 1-1v-2c0-.550781-.449219-1-1-1z"/><path d="m24 44c-.550781 0-1 .449219-1 1v2c0 .550781.449219 1 1 1s1-.449219 1-1v-2c0-.550781-.449219-1-1-1z"/><path d="m29 44c-.550781 0-1 .449219-1 1v2c0 .550781.449219 1 1 1s1-.449219 1-1v-2c0-.550781-.449219-1-1-1z"/><path d="m45 44c-.550781 0-1 .449219-1 1v2c0 .550781.449219 1 1 1s1-.449219 1-1v-2c0-.550781-.449219-1-1-1z"/><path d="m35 44c-.550781 0-1 .449219-1 1v2c0 .550781.449219 1 1 1s1-.449219 1-1v-2c0-.550781-.449219-1-1-1z"/><path d="m40 44c-.550781 0-1 .449219-1 1v2c0 .550781.449219 1 1 1s1-.449219 1-1v-2c0-.550781-.449219-1-1-1z"/><path d="m34 58c0 1.105469-.894531 2-2 2s-2-.894531-2-2 .894531-2 2-2 2 .894531 2 2z"/><path d="m33 6h4c.550781 0 1-.449219 1-1s-.449219-1-1-1h-4c-.550781 0-1 .449219-1 1s.449219 1 1 1z"/><path d="m27 6h2c.550781 0 1-.449219 1-1s-.449219-1-1-1h-2c-.550781 0-1 .449219-1 1s.449219 1 1 1z"/><path d="m36.300781 27.53125c.25-.160156.417969-.425781.453125-.722656.039063-.292969-.058593-.589844-.265625-.808594-1.644531-1.878906-4.285156-2.539062-6.625-1.660156-2.335937.878906-3.886718 3.117187-3.886718 5.613281 0 2.5 1.550781 4.738281 3.886718 5.617188 2.339844.878906 4.980469.21875 6.625-1.660157.1875-.214843.277344-.496093.242188-.78125-.035156-.28125-.1875-.535156-.421875-.699218-.8125-.558594-1.296875-1.484375-1.296875-2.46875 0-.988282.484375-1.910157 1.296875-2.472657zm-2.0625 5.769531c-.65625.457032-1.4375.703125-2.238281.699219-2.210937 0-4-1.789062-4-4 0-2.210937 1.789063-4 4-4 .800781-.003906 1.582031.242188 2.238281.699219-1.652343 1.886719-1.652343 4.703125 0 6.589844z"/><path d="m33 23c.265625 0 .519531-.101562.710938-.289062l1-1c.339843-.398438.316406-.988282-.054688-1.359375-.367187-.367188-.960937-.390625-1.355469-.050782l-1 1c-.28125.285157-.363281.710938-.210937 1.078125.152344.371094.511719.617188.910156.621094z"/></g><path d="m22.5 13 1.238281 2.261719 2.261719 1.238281-2.261719 1.238281-1.238281 2.261719-1.238281-2.261719-2.261719-1.238281 2.261719-1.238281z" fill="#fff8f8"/><path d="m43.421875 19.160156.847656 1.570313 1.570313.847656-1.570313.863281-.847656 1.558594-.863281-1.558594-1.558594-.863281 1.558594-.847656z" fill="#fff8f8"/><path d="m36.648438 38.699219.582031 1.070312 1.070312.582032-1.070312.589843-.582031 1.058594-.589844-1.058594-1.058594-.589843 1.058594-.582032z" fill="#fff8f8"/></svg>