<svg height="100" viewBox="0 0 64 64" width="100" xmlns="http://www.w3.org/2000/svg"><path d="m13 7h38c3.3125 0 6 2.6875 6 6v38c0 3.3125-2.6875 6-6 6h-38c-3.3125 0-6-2.6875-6-6v-38c0-3.3125 2.6875-6 6-6z" fill="#58b5e8"/><path d="m23 22.5c0 1.933594-1.566406 3.5-3.5 3.5s-3.5-1.566406-3.5-3.5 1.566406-3.5 3.5-3.5 3.5 1.566406 3.5 3.5z" fill="#faefde"/><path d="m39.761719 28c-2.210938 0-5 1.78125-6.191406 2.789063v-1.328125c0-.554688-.449219-1-1-1h-5.089844c-.554688 0-1 .445312-1 1v21c0 .550781.445312 1 1 1h5.398437c.554688 0 1-.449219 1-1v-10.582032c0-3.160156 1.78125-5.339843 3.890625-5.339843s3.371094 2.390625 3.371094 5.511718v10.429688c0 .550781.445313 1 1 1h5.398438c.554687 0 1-.449219 1-1v-11.710938c-.140625-5.328125-1.167969-10.769531-8.777344-10.769531z" fill="#faefde"/><path d="m16 29h7v22h-7z" fill="#faefde"/><path d="m11 7h42c2.210938 0 4 1.789063 4 4 0 1.65625-1.34375 3-3 3h-44c-1.65625 0-3-1.34375-3-3 0-2.210937 1.789063-4 4-4z" fill="#65c5ef"/><g fill="#8d6c9f"><path d="m23 28h-7c-.550781 0-1 .449219-1 1v22c0 .550781.449219 1 1 1h7c.550781 0 1-.449219 1-1v-22c0-.550781-.449219-1-1-1zm-1 22h-5v-20h5z"/><path d="m39.878906 27.441406c-1.976562-.027343-3.902343.636719-5.4375 1.878907v-.320313c0-.550781-.449218-1-1-1h-6.441406c-.550781 0-1 .449219-1 1v22c0 .550781.449219 1 1 1h6.699219c.554687 0 1-.449219 1-1v-11.109375c0-3.3125.820312-4.550781 3-4.550781 2.179687 0 2.492187 1.460937 2.492187 4.71875v10.941406c0 .550781.445313 1 1 1h6.707032c.554687 0 1-.449219 1-1v-12.28125c.023437-5.578125-1.046875-11.277344-9.019532-11.277344zm7 22.558594h-4.667968v-9.941406c0-2.347656 0-6.71875-4.492188-6.71875-5 0-5 4.929687-5 6.550781v10.109375h-4.71875v-20h4.429688v2c.042968.570313.519531 1.007813 1.089843 1 .367188 0 .707032-.203125.878907-.53125 1.128906-1.925781 3.226562-3.082031 5.460937-3 5.871094 0 7 3.550781 7 9.292969z"/><path d="m19.5 18c-2.484375 0-4.5 2.015625-4.5 4.5s2.015625 4.5 4.5 4.5 4.5-2.015625 4.5-4.5-2.015625-4.5-4.5-4.5zm0 7.328125c-1.5625 0-2.828125-1.265625-2.828125-2.828125s1.265625-2.828125 2.828125-2.828125 2.828125 1.265625 2.828125 2.828125-1.265625 2.828125-2.828125 2.828125z"/><path d="m51 6h-38c-3.867187 0-7 3.132813-7 7v38c0 3.867188 3.132813 7 7 7h38c3.867188 0 7-3.132812 7-7v-38c0-3.867187-3.132812-7-7-7zm5 45c0 2.761719-2.238281 5-5 5h-38c-2.761719 0-5-2.238281-5-5v-38c0-2.761719 2.238281-5 5-5h38c2.761719 0 5 2.238281 5 5z"/><path d="m17 16c.550781 0 1-.449219 1-1v-2c0-.550781-.449219-1-1-1s-1 .449219-1 1v2c0 .550781.449219 1 1 1z"/><path d="m12 12c-.550781 0-1 .449219-1 1v2c0 .550781.449219 1 1 1s1-.449219 1-1v-2c0-.550781-.449219-1-1-1z"/><path d="m32 16c.550781 0 1-.449219 1-1v-2c0-.550781-.449219-1-1-1s-1 .449219-1 1v2c0 .550781.449219 1 1 1z"/><path d="m37 16c.550781 0 1-.449219 1-1v-2c0-.550781-.449219-1-1-1s-1 .449219-1 1v2c0 .550781.449219 1 1 1z"/><path d="m42 16c.550781 0 1-.449219 1-1v-2c0-.550781-.449219-1-1-1s-1 .449219-1 1v2c0 .550781.449219 1 1 1z"/><path d="m47 16c.550781 0 1-.449219 1-1v-2c0-.550781-.449219-1-1-1s-1 .449219-1 1v2c0 .550781.449219 1 1 1z"/><path d="m52 12c-.550781 0-1 .449219-1 1v2c0 .550781.449219 1 1 1s1-.449219 1-1v-2c0-.550781-.449219-1-1-1z"/><path d="m22 16c.550781 0 1-.449219 1-1v-2c0-.550781-.449219-1-1-1s-1 .449219-1 1v2c0 .550781.449219 1 1 1z"/><path d="m27 16c.550781 0 1-.449219 1-1v-2c0-.550781-.449219-1-1-1s-1 .449219-1 1v2c0 .550781.449219 1 1 1z"/></g></svg>