<svg height="100" viewBox="0 0 48 48" width="100" xmlns="http://www.w3.org/2000/svg"><path d="m32.164063 6.367188c-.640625-.316407-1.164063.003906-1.164063.722656v28.449219l11.675781 5.835937c1.285157.640625 2.324219.191406 2.324219-1.003906v-27.398438c0-.113281-.066406-.21875-.167969-.269531z" fill="#d0d0d0"/><path d="m17 28.535156 13.320313-21.640625c.375-.609375 1.203125-.84375 1.84375-.527343l12.683593 6.34375c.082032.042968.109375.144531.0625.222656l-13.910156 22.601562z" fill="#a1a1a1"/><path d="m4.9375 6.757813c-1.066406-.535157-1.425781-.140625-.800781.875l12.863281 20.902343 14 7-13.96875-22.699218c-.019531-.03125-.050781-.058594-.082031-.074219z" fill="#808080"/><path d="m17 40.371094c0 1.191406-.871094 1.730469-1.9375 1.195312l-10.898437-5.449218c-.640625-.316407-1.164063-1.164063-1.164063-1.878907v-26.71875c0-.953125.699219-1.382812 1.550781-.957031l12.375 6.1875c.046875.023438.074219.070313.074219.121094z" fill="#575757"/></svg>
