<svg height="100" width="100" xmlns="http://www.w3.org/2000/svg"><path d="m0 0c.68128967-.00175232 1.36257935-.00350464 2.06451416-.00531006 2.26237501-.00441783 4.52467247-.00148078 6.78704834.00189209 1.5655926-.00067306 3.1311851-.0016431 4.69677734-.00289917 3.28532911-.00147688 6.57063108.00067726 9.85595704.00534058 4.22047078.00569729 8.44087798.00241823 12.66134643-.00357247 3.23408491-.00360588 6.46815464-.0024669 9.70223999.0001278 1.55660001.00066919 3.11320138-.00015889 4.66979981-.00247956 2.17185135-.00252698 4.34359835.00131467 6.51544189.00690079 1.23830566.00079559 2.47661133.00159119 3.75244141.00241089 2.77099609.12698364 2.77099609.12698364 3.77099609 1.12698364.09319449 1.5348297.117458 3.07392083.11352539 4.61157227-.0001133 1.47141197-.0001133 1.47141197-.00022888 2.97254944-.00516129 1.0666539-.01032257 2.1333078-.01564026 3.23228454-.00141495 1.08619125-.0028299 2.17238251-.00428772 3.29148865-.00561805 3.48489585-.01817361 6.96972852-.03086853 10.4546051-.00501267 2.35611887-.00957598 4.71223874-.01367188 7.06835938-.01105293 5.78973526-.02780861 11.57943343-.04882812 17.36914062-4.73284912 1.10961914-4.73284912 1.10961914-7.13720703.12304688-.69979981-.46341797-1.39959961-.92683594-2.12060547-1.40429688-.78552246-.50966308-1.57104492-1.01932617-2.38037109-1.54443359-.82064942-.55252442-1.64129883-1.10504883-2.48681641-1.67431641-.8451416-.54865723-1.6902832-1.09731445-2.56103516-1.66259765-3.64566353-2.37153243-7.25711338-4.78679481-10.82958984-7.26708985-.94359375-.64195312-1.8871875-1.28390625-2.859375-1.9453125-.79148438-.56460937-1.58296875-1.12921875-2.3984375-1.7109375-2.21003228-1.18499334-2.21003228-1.18499334-4.49072266-.19995117-3.07533959 1.44545901-5.86513394 3.12695933-8.73583984 4.94604492-1.14571214.7182923-2.29154928 1.43638527-3.4375 2.15429688-1.78569062 1.12515225-3.5697945 2.2526786-5.3515625 3.3840332-1.73287246 1.09807433-3.47145761 2.18660268-5.2109375 3.27416992-1.03125.65234619-2.0625 1.30469238-3.125 1.97680664-2.73043766 1.47257215-4.80135814 2.24557421-7.875 2.55053711-1.6140925-1.6140925-1.12734318-3.36476408-1.12939453-5.59570312-.00315216-.97771363-.00630432-1.95542725-.009552-2.96276856.00202423-1.06351684.00404846-2.12703369.00613403-3.22277832-.00095673-1.08381958-.00191345-2.16763916-.00289917-3.28430176-.00068198-2.29667213.00117356-4.59334619.00534058-6.89001465.00534797-3.52917787.00005559-7.05822846-.00634766-10.58740234.00066078-2.2252607.00194193-4.45052132.00390625-6.67578125-.00202423-1.06351684-.00404846-2.12703369-.00613403-3.22277832.00315216-.97771362.00630432-1.95542725.009552-2.96276855.00079559-.86524292.00159119-1.73048584.00241089-2.62194825.2838574-4.41210322 4.02875616-3.10082254 7.65042114-3.10314941zm-2.5234375 5.12939453v39c7.94222867-4.63296672 15.60619064-9.25991102 23.10351562-14.51953125.69673829-.46792969 1.39347657-.93585937 2.11132813-1.41796875.91446899-.63228515.91446899-.63228515 1.84741211-1.27734375 2.72706435-1.1049816 4.15102796-.67631184 6.93774414.21484375 2.70727539 1.45874024 2.70727539 1.45874024 5.59765625 3.30859375 1.04865234.66451172 2.09730469 1.32902344 3.17773437 2.01367188 1.0847461.69802734 2.16949219 1.39605468 3.28710938 2.11523437 2.15661109 1.37517474 4.31412631 2.74893287 6.47265625 4.12109375.95269775.61157959 1.90539551 1.22315918 2.88696289 1.85327149 2.76111803 1.75340599 2.76111803 1.75340599 6.57788086 3.58813476 0-12.87 0-25.74 0-39-20.46 0-40.92 0-62 0z" fill="#ff6618" transform="translate(19.523438 40.870605)"/><path d="m0 0c9.23997552-.02312524 18.47994114-.04091601 27.71993923-.05181217 4.29005992-.00522844 8.5801001-.01232536 12.87014866-.02362728 4.13670611-.0108303 8.27339319-.01683769 12.41011238-.01943779 1.58172277-.001854 3.16344444-.00547412 4.74515915-.01085282 2.20786896-.00721234 4.41565831-.0082608 6.62353706-.00779533 1.25908677-.00222061 2.51817353-.00444122 3.81541443-.00672913 2.81568909.12025452 2.81568909.12025452 3.81568909 1.12025452.09851171 1.83115883.12972629 3.66619933.125 5.5.00386719 1.50046875.00386719 1.50046875.0078125 3.03125-.1328125 2.46875-.1328125 2.46875-1.1328125 3.46875-2.1726268.09956278-4.34853106.12799719-6.5234375.12939453-.68128967.00175232-1.36257935.00350464-2.06451416.00531006-2.26237501.00441783-4.52467247.00148079-6.78704834-.00189209-1.5655926.00067306-3.1311851.0016431-4.69677734.00289917-3.28532911.00147688-6.57063108-.00067726-9.85595704-.00534058-4.22047078-.00569729-8.44087798-.00241823-12.66134643.00357247-3.23408491.00360588-6.46815464.0024669-9.70223999-.00012779-1.55660001-.0006692-3.11320138.00015889-4.66979981.00247955-2.17185135.00252698-4.34359835-.00131467-6.51544189-.00690079-1.23830566-.00079559-2.47661133-.00159119-3.75244141-.00241089-2.77099609-.12698364-2.77099609-.12698364-3.77099609-1.12698364-.07244053-2.01964199-.08377188-4.04167124-.0625-6.0625.00902344-1.10472656.01804687-2.20945312.02734375-3.34765625.01160156-.85464844.02320313-1.70929687.03515625-2.58984375zm5 5v3h62c0-.99 0-1.98 0-3-20.46 0-40.92 0-62 0z" fill="#ff6718" transform="translate(12 25)"/><path d="m0 0c.68128967-.00175232 1.36257935-.00350464 2.06451416-.00531006 2.26237501-.00441783 4.52467247-.00148078 6.78704834.00189209 1.5655926-.00067306 3.1311851-.0016431 4.69677734-.00289917 3.28532911-.00147688 6.57063108.00067726 9.85595704.00534058 4.22047078.00569729 8.44087798.00241823 12.66134643-.00357247 3.23408491-.00360588 6.46815464-.0024669 9.70223999.0001278 1.55660001.00066919 3.11320138-.00015889 4.66979981-.00247956 2.17185135-.00252698 4.34359835.00131467 6.51544189.00690079 1.23830566.00079559 2.47661133.00159119 3.75244141.00241089 2.77099609.12698364 2.77099609.12698364 3.77099609 1.12698364.09851171 1.83115883.12972629 3.66619933.125 5.5.00386719 1.50046875.00386719 1.50046875.0078125 3.03125-.1328125 2.46875-.1328125 2.46875-1.1328125 3.46875-2.20867831.09432986-4.42041521.11742431-6.63110352.11352539-.69264953.00014603-1.38529907.00029206-2.09893798.00044251-2.29965296-.00069915-4.59922587-.00849161-6.89886475-.01631165-1.59040787-.00186417-3.18081632-.00328808-4.77122498-.00428772-4.19382807-.00382524-8.38762172-.01365558-12.58143615-.02470398-4.27632176-.01021398-8.55264906-.01479361-12.8289795-.01983642-8.3965002-.01073744-16.79297238-.02781394-25.18945312-.04882813-.02686553-1.97909397-.04633375-3.95828971-.0625-5.9375-.01160156-1.10214844-.02320313-2.20429687-.03515625-3.33984375.18460251-5.14671811 3.11901639-3.84915826 7.62109375-3.85205078zm-2.5234375 5.12939453v3h62c0-.99 0-1.98 0-3-20.46 0-40.92 0-62 0z" fill="#ff6618" transform="translate(19.523438 7.870605)"/></svg>