<svg enable-background="new 0 0 128 128" height="100" viewBox="0 0 128 128" width="100" xmlns="http://www.w3.org/2000/svg"><path d="m100.2 42.5c-.4.4-.7 1-.6 1.6.1 1.9 2.6 47.4-45.7 58.8-.2 0-19.4 4-36-4.2 7-.2 17.1-2 24.1-9.9.5-.6.7-1.4.3-2.2-.3-.7-1-1.2-1.8-1.2-.1.1-10.6 0-15.5-10 1.9.1 4.3 0 6.3-.9.8-.4 1.3-1.2 1.2-2-.1-.9-.7-1.6-1.6-1.7-.5-.1-12.3-2.7-13.9-15.5 1.8.8 4.1 1.4 6.3 1.1.8-.1 1.4-.7 1.6-1.4.2-.8 0-1.6-.6-2.1-.5-.4-11.5-10.2-6.3-22.9 5.7 6 22.5 21.4 42.9 20.3.6 0 1.1-.3 1.5-.8s.5-1.1.3-1.7c-.4-1.5-.6-3.1-.6-4.7 0-10.4 8.3-18.9 18.6-18.9 5 0 9.7 2 13.2 5.6.4.4.9.6 1.4.6 2.1 0 5.6-.2 9.6-1.8-1.1 1.4-2.8 3.1-5.3 5.1-.7.5-1 1.5-.6 2.3.3.8 1.2 1.3 2 1.3.5 0 2.9-.2 5.6-.8-1.6 1.4-3.6 3.4-6.4 6z" fill="#76ecff"/><path d="m32.1 65.1c.8-.1 1.4-.7 1.6-1.4.2-.8 0-1.6-.6-2.1-.5-.4-11.5-10.2-6.3-22.9 5.7 6 22.5 21.4 42.9 20.3.6 0 1.1-.3 1.5-.8s.5-1.1.3-1.7c-.4-1.5-.6-3.1-.6-4.7 0-10.4 8.3-18.9 18.6-18.9 3.3 0 14.2-3 15.3-4.4-4 1.6-7.5 1.8-9.6 1.8-.5 0-1-.2-1.4-.6-3.5-3.6-8.2-5.6-13.2-5.6-10.3 0-18.6 8.4-18.6 18.8 0 1.6.2 3.2.6 4.7.1.6 0 1.2-.3 1.7-.4.5-.9.8-1.5.8-20.4 1.2-37.2-14.3-42.9-20.3-5.2 12.6 5.8 22.4 6.3 22.9.6.5.8 1.3.6 2.1s-.9 1.3-1.6 1.4c-2.3.3-4.5-.3-6.3-1.1 1.1 8.5 6.6 12.5 10.4 14.3-.7-1.6-1.2-3.3-1.5-5.4 1.7.8 4 1.5 6.3 1.1z" fill="#fff"/><path d="m40.1 83.4c.8-.4 1.3-1.2 1.2-2-.1-.9-.7-1.6-1.6-1.7-.3-.1-5-1.1-8.8-4.9-1.8.7-4 .8-5.9.7 2.5 5.1 6.5 7.7 9.8 8.9 1.7-.1 3.7-.3 5.3-1z" fill="#fff"/><path d="m50.8 97.7c.5-.6.7-1.4.3-2.2-.3-.7-1-1.2-1.8-1.2-.1 0-5 0-9.7-3.2-6.8 5.9-15.5 7.4-21.8 7.6 8.5 4.2 17.8 5.2 24.7 5.2 3-1.5 5.9-3.5 8.3-6.2z" fill="#fff"/><g fill="#444b54"><path d="m24.2 55.8c-.7 0-1.4-.2-2-.7-.5-.5-13.1-11.7-7.1-26.3.4-.9 1.2-1.6 2.2-1.8s2 .1 2.7.9c16.7 17.5 32.3 19.5 39.3 19.4-.3-1.4-.4-2.8-.4-4.2 0-12 9.7-21.9 21.6-21.9 5.7 0 11 2.2 15 6.2 6.7-.4 10.7-3.7 10.8-3.7 1.3-1.1 3.2-.9 4.2.3 1.1 1.3.9 3.2-.3 4.2-.2.2-5.8 4.9-15 5.2-.1 0-.1 0-.2 0-1.3 0-2.6-.6-3.5-1.5-2.9-3-6.9-4.7-11.1-4.7-8.4-.1-15.4 7-15.4 15.7 0 1.3.2 2.7.5 4 .4 1.5.1 3-.8 4.2s-2.3 2-3.8 2c-18 1-33.2-9.9-41.4-17.4-.6 8.4 6.3 14.5 6.6 14.8 1.2 1.1 1.4 3 .3 4.2-.5.7-1.4 1.1-2.2 1.1z"/><path d="m99.6 47.1c-1 0-2-.5-2.6-1.5-.8-1.4-.3-3.3 1.1-4.1 5.4-3.1 11-10.2 11.1-10.3 1-1.3 2.9-1.5 4.2-.5s1.5 2.9.5 4.2c-.3.3-6.4 8.1-12.8 11.8-.5.2-1 .4-1.5.4z"/><path d="m30.8 73.7c-.2 0-.4 0-.6-.1-.6-.1-14.4-3.2-16.3-18.1-.2-1.6 1-3.1 2.6-3.4 1.6-.2 3.1 1 3.4 2.6 1.4 10.7 11.2 12.9 11.6 13 1.6.3 2.7 1.9 2.3 3.6-.4 1.5-1.6 2.4-3 2.4z"/><path d="m40.5 88.5c-1.7.1-3.8-.4-5.1-.8-4.1-1.2-9.8-4-13.1-11-.7-1.5-.1-3.3 1.4-4s3.3-.1 4 1.4c3.8 7.9 11.9 8.3 12.6 8.4 1.7-.1 3.2 1.3 3.2 3 0 1.6-1.4 3-3 3z"/><path d="m40.6 95c-.2 0-.4 0-.6-.1-.2 0-.4-.1-.6-.2s-.4-.2-.5-.3c-.2-.1-.3-.2-.5-.4-.1-.1-.3-.3-.4-.5s-.2-.3-.3-.5-.1-.4-.2-.6c0-.2-.1-.4-.1-.6s0-.4.1-.6c0-.2.1-.4.2-.6s.2-.4.3-.5c.1-.2.2-.3.4-.5.1-.1.3-.3.5-.4s.3-.2.5-.3.4-.1.6-.2c.4-.1.8-.1 1.2 0 .2 0 .4.1.6.2s.4.2.5.3c.2.1.3.2.5.4s.3.3.4.5.2.3.3.5.1.4.2.6c0 .2.1.4.1.6s0 .4-.1.6c0 .2-.1.4-.2.6s-.2.4-.3.5-.2.3-.4.5c-.1.1-.3.3-.5.4s-.3.2-.5.3-.4.1-.6.2c-.2 0-.4.1-.6.1z"/><path d="m17.9 101.7c-1.6 0-3-1.3-3-2.9 0-1.7 1.3-3 2.9-3.1 5.3-.1 10.1-1.2 14.1-3.1 1.5-.7 3.3-.1 4 1.4s.1 3.3-1.4 4c-4.8 2.3-10.4 3.5-16.6 3.7z"/><path d="m42.3 106.9c-3 0-6.4-.2-10-.7-1.6-.2-2.8-1.8-2.5-3.4.2-1.6 1.8-2.8 3.4-2.5 10.8 1.6 20-.3 20.1-.3 45.7-10.9 43.4-53.9 43.3-55.7-.1-1.7 1.1-3.1 2.8-3.2s3.1 1.1 3.2 2.8c.1 2 2.7 49.9-48 61.9-.4.1-5.3 1.1-12.3 1.1z"/></g></svg>