<svg height="100" viewBox="0 0 64 64" width="100" xmlns="http://www.w3.org/2000/svg"><path d="m55.871094 14.636719h-7.574219l-.835937-4.054688c-.671875-3.246093-3.609375-5.582031-7.023438-5.582031h-16.875c-3.414062 0-6.351562 2.335938-7.023437 5.582031l-.835938 4.054688h-7.578125c-3.933594 0-7.125 3.078125-7.125 6.878906v29.609375c0 3.796875 3.1875 6.875 7.121094 6.875h47.757812c3.933594 0 7.121094-3.078125 7.121094-6.878906v-29.601563c0-3.800781-3.191406-6.882812-7.128906-6.882812z" fill="#72caaf"/><g fill="none" stroke="#8d6c9f" stroke-linecap="round" stroke-miterlimit="10" stroke-width="2"><path d="m48 35v2"/><path d="m53 35v2"/><path d="m58 35v2"/><path d="m6 35v2"/><path d="m11 35v2"/><path d="m16 35v2"/></g><path d="m42 36c0 5.523438-4.476562 10-10 10-5.523437 0-10-4.476562-10-10 0-5.523437 4.476563-10 10-10 5.523438 0 10 4.476563 10 10z" fill="#acb7d0"/><path d="m32 28c4.410156 0 8 3.589844 8 8s-3.589844 8-8 8-8-3.589844-8-8 3.589844-8 8-8m0-2c-5.523437 0-10 4.476563-10 10 0 5.523438 4.476563 10 10 10 5.523438 0 10-4.476562 10-10 0-5.523437-4.476562-10-10-10z" fill="#8d6c9f"/><path d="m32 24c6.617188 0 12 5.382813 12 12 0 6.617188-5.382812 12-12 12-6.617187 0-12-5.382812-12-12 0-6.617187 5.382813-12 12-12m0-2c-7.730469 0-14 6.269531-14 14s6.269531 14 14 14 14-6.269531 14-14-6.269531-14-14-14z" fill="#8d6c9f"/><path d="m56.273438 53h-48.546875c-1.875 0-3.632813.933594-4.726563 2.5 1.09375 1.566406 2.851563 2.5 4.726563 2.5h48.546875c1.875 0 3.632812-.933594 4.726562-2.5-1.09375-1.566406-2.851562-2.5-4.726562-2.5z" fill="#5dbc9d"/><path d="m48 16h-32l1.390625-6.945312c.351563-1.777344 1.914063-3.054688 3.722656-3.054688h21.773438c1.808594 0 3.367187 1.277344 3.722656 3.054688z" fill="#97e0bb"/><path d="m40.4375 6c2.449219 0 4.578125 1.761719 5.058594 4.183594l.835937 4.207031c.1875.933594 1.007813 1.609375 1.964844 1.609375h7.558594c2.835937 0 5.144531 2.308594 5.144531 5.144531v30.734375c0 2.824219-2.296875 5.121094-5.121094 5.121094h-47.742187c-2.832031 0-5.136719-2.304687-5.136719-5.136719v-30.738281c0-2.824219 2.300781-5.125 5.125-5.125h7.578125c.957031 0 1.777344-.675781 1.964844-1.609375l.835937-4.207031c.480469-2.425781 2.609375-4.183594 5.058594-4.183594zm0-2h-16.875c-3.414062 0-6.351562 2.425781-7.023437 5.792969l-.835938 4.207031h-7.578125c-3.933594 0-7.125 3.191406-7.125 7.125v30.738281c0 3.941407 3.195313 7.136719 7.136719 7.136719h47.742187c3.933594 0 7.121094-3.1875 7.121094-7.121094v-30.734375c0-3.945312-3.199219-7.144531-7.144531-7.144531h-7.558594l-.835937-4.207031c-.671875-3.367188-3.609375-5.792969-7.023438-5.792969z" fill="#8d6c9f"/></svg>