<svg height="100" width="100" xmlns="http://www.w3.org/2000/svg"><path d="m0 0c4.10627682-.29947601 8.20824798-.51555839 12.32299805-.65917969 1.39468111-.05990317 2.78862241-.1414809 4.18066406-.24609375 4.67814494-.34242611 8.91982956-.34059423 13.49633789.90527344 3.93194579 3.48633216 6.37112264 7.48808145 9 12 .99660625 1.35765628 2.01459013 2.7002781 3.06640625 4.015625.42216797.54785156.84433594 1.09570312 1.27929687 1.66015625.40154297.51949219.80308594 1.03898437 1.21679688 1.57421875.43634766.56589844.87269531 1.13179687 1.32226562 1.71484375 1.03770582 1.34559656 2.07635335 2.69046682 3.11523438 4.03515625 3.74966136-3.70150057 7.36493111-7.50296828 10.9375-11.375.5364917-.57000732 1.0729834-1.14001465 1.62573242-1.72729492 2.74851412-2.94301017 5.06911589-5.81500069 7.24926758-9.21020508 2.1771684-2.70315098 3.30923268-2.70115467 6.87890625-3.1015625 3.79113103-.09080821 7.53014127.11120944 11.30859375.4140625-1.50006391 3.44779086-3.50409262 5.82360533-6.0625 8.5625-3.26768473 3.56046928-6.40229193 7.1768292-9.4375 10.9375-4.31749665 5.33785742-8.85924678 10.44234697-13.5 15.5 1.57572971 4.93602079 4.46671796 8.48836993 7.625 12.5 1.16709037 1.50357746 2.3337354 3.00750068 3.5 4.51171875.62261719.79970215 1.24523437 1.5994043 1.88671875 2.42333984 3.56794028 4.60274811 7.08774965 9.24218416 10.61328125 13.87744141.68658691.90105469 1.37317383 1.80210938 2.08056641 2.73046875 3.61328439 4.74204165 3.61328439 4.74204165 5.29443359 6.95703125.56380371.70922607 1.12760742 1.41845215 1.70849609 2.14916992 1.29150391 1.85083008 1.29150391 1.85083008 1.29150391 3.85083008-25.51891397 2.52758767-25.51891397 2.52758767-32.46972656-1.39306641-3.81255577-3.55274147-6.18788552-7.86913176-8.45703125-12.515625-1.61468943-3.14636707-3.67358188-5.78501143-5.82324219-8.59130859-1.08462076-1.49906935-2.16852566-2.99865915-3.25-4.5-3.59037702 2.70216528-6.35895165 5.46618918-9.125 9-.78375.95519531-1.5675 1.91039063-2.375 2.89453125-1.72385153 2.14134682-3.37112054 4.28346236-5 6.4921875-6.20500722 8.00239214-6.20500722 8.00239214-10.45361328 9.13330078-4.40788448.49527954-8.65911251.11942125-13.04638672-.52001953 1.50006391-3.44779086 3.50409262-5.82360533 6.0625-8.5625 3.22948338-3.51792208 6.32210518-7.08932375 9.3125-10.8125 4.94741831-6.12078831 10.25667924-11.87537795 15.625-17.625-2.75220226-5.0954688-5.81362414-9.48365752-9.5-13.9375-4.42680469-5.43905865-8.73865913-10.94536348-12.9375-16.5625-.48339844-.64573975-.96679688-1.29147949-1.46484375-1.95678711-1.37312255-1.84251115-2.7363904-3.69193089-4.09765625-5.54321289-.48098145-.64453125-.96196289-1.2890625-1.45751953-1.953125-3.54248047-4.81787298-3.54248047-4.81787298-3.54248047-7.046875zm18 9c2.83381139 5.54441358 6.41038514 10.03411125 10.39453125 14.8046875 2.88656834 3.49560012 5.59030921 7.11924022 8.29296875 10.7578125 5.54912181 7.45971005 11.23535823 14.80497154 16.95703125 22.1328125 3.88454634 4.97551112 7.72624711 9.98330653 11.5625 14.99609375 1.59305789 2.15026039 1.59305789 2.15026039 2.79296875 3.30859375 1.99958364.04080783 4.00045254.04254356 6 0-3.99479572-6.17625413-8.25101165-12.04474579-12.8125-17.8125-1.2494687-1.59314579-2.49816797-3.18689533-3.74609375-4.78125-.5966748-.76183594-1.19334961-1.52367187-1.80810547-2.30859375-2.74376314-3.52382853-5.4089375-7.10458481-8.07470703-10.6875-2.15332084-2.88347507-4.33694847-5.74317034-6.5234375-8.6015625-.71430176-.93416748-1.42860352-1.86833496-2.16455078-2.83081055-1.42787629-1.86588396-2.85718082-3.73067604-4.28808594-5.59423828-.66273926-.8664917-1.32547851-1.7329834-2.00830078-2.62573242-.62825684-.82129395-1.25651367-1.64258789-1.90380859-2.48876953-1.41162147-1.91751094-2.67921574-3.84739777-3.91650391-5.87841797-.57878906-.78890625-1.15757813-1.5778125-1.75390625-2.390625-3.66857722-.50125283-3.66857722-.50125283-7 0z" fill="#181818" transform="translate(4 7)"/></svg>