<svg height="100" viewBox="0 0 48 48" width="100" xmlns="http://www.w3.org/2000/svg"><path d="m2.771 27.348c-.507-3.402-.287-6.486.411-9.854.231-1.115.536-2.227 1.075-3.232 1.761-3.28 5.685-4.823 9.4-5.24 3.715-.416 7.283-.221 11.015-.437 5.51-.319 10.337.289 15.482 1.48.795.184 1.606.375 2.297.807 1.592.996 2.172 3.002 2.485 4.847.944 5.56.612 11.258-.034 16.86-.169 1.462-.396 3.008-1.345 4.137-.848 1.008-2.146 1.522-3.422 1.867-3.363.909-6.898.904-10.384.893-4.226-.014-8.453-.027-12.679-.041-4.114-.013-8.593-.152-11.757-2.766-.681-.562-1.288-1.243-1.615-2.061-.238-.594-.319-1.236-.399-1.87-.258-2.054-.225-3.342-.53-5.39z" fill="#ef4823"/><path d="m46.014 22.201c-.043-2.331-.227-4.68-.66-6.974-.32-1.695-.914-3.51-2.355-4.582-.828-.616-1.837-.861-2.826-1.088-1.117-.257-2.239-.491-3.367-.693-2.19-.393-4.403-.67-6.625-.791-2.37-.129-4.715.005-7.082.083-2.385.078-4.773.044-7.156.178-3.737.211-7.741.905-10.543 3.611-1.462 1.412-2.226 3.233-2.653 5.193-.493 2.258-.786 4.579-.75 6.892.018 1.157.127 2.306.292 3.451.309 2.133.248 4.331.692 6.444.41 1.951 1.987 3.338 3.682 4.242 3.576 1.908 7.845 1.759 11.778 1.772 4.917.016 9.85.142 14.766.013 2.371-.062 4.766-.263 7.063-.887 1.88-.511 3.625-1.413 4.428-3.285.382-.89.537-1.846.657-2.801.148-1.173.266-2.352.369-3.53.212-2.409.335-4.829.29-7.248zm-1.612 10.378c-.235 2.017-.695 3.903-2.647 4.888-1.855.936-4.13 1.202-6.173 1.365-4.485.358-9.042.134-13.537.119-2.184-.007-4.37.012-6.554-.032-1.836-.037-3.685-.145-5.477-.573-1.788-.427-3.56-1.193-4.874-2.512-1.49-1.496-1.431-3.717-1.579-5.693-.073-.979-.168-1.954-.308-2.926-.319-2.207-.333-4.443-.074-6.658.244-2.092.565-4.432 1.642-6.278 1.748-2.998 5.377-4.328 8.657-4.736 2.197-.274 4.422-.298 6.633-.329 2.202-.031 4.398-.168 6.599-.206 4.259-.074 8.481.461 12.633 1.384.959.213 2.013.378 2.857.911.754.476 1.265 1.246 1.599 2.058.744 1.809.912 3.9 1.069 5.828.362 4.462.052 8.954-.466 13.39z" fill="#010101"/><path d="m19.6 17.534c-.6 4.466.18 8.819.1 12.932 3.819-2.139 7.937-4.278 11.757-6.417-1.568-.967-3.336-1.955-4.998-2.75-2.212-1.057-4.998-2.508-6.859-3.765z" fill="#d6e5e5"/><path d="m31.709 23.617c-3.848-2.363-8.1-4-11.857-6.515-.154-.103-.302-.098-.426-.041-.147.036-.272.138-.308.339-.431 2.392-.563 4.791-.357 7.213.166 1.952.469 3.887.439 5.851-.006.386.427.614.752.432 3.897-2.179 7.86-4.237 11.757-6.417.335-.186.313-.669 0-.862zm-11.934 1.157c-.192-2.15-.119-4.281.206-6.408 3.349 2.13 7.034 3.667 10.461 5.667-3.407 1.889-6.852 3.71-10.259 5.599-.046-1.625-.264-3.236-.408-4.858z" fill="#010101"/></svg>